<svg xmlns="http://www.w3.org/2000/svg" viewBox="0 0 140 140" style="enable-background:new 0 0 140 140" xml:space="preserve">
  <path d="M70 5C34.1 5 5 34.1 5 70s29.1 65 65 65 65-29.1 65-65S105.9 5 70 5zm0 127c-34.2 0-62-27.8-62-62S35.8 8 70 8s62 27.8 62 62-27.8 62-62 62z" style="opacity:.6;fill-rule:evenodd;clip-rule:evenodd;fill:#e50038"/>
  <path d="M89.2 68.5 63.1 50.4c-.6-.4-1.4-.5-2-.1-.6.3-1.1 1-1.1 1.7v36.2c0 .7.4 1.4 1.1 1.7.3.1.6.2.9.2.4 0 .8-.1 1.1-.4l26.1-18.1c.5-.4.8-.9.8-1.5 0-.7-.3-1.3-.8-1.6zM63.9 84.4V55.6L84.7 70 63.9 84.4z" style="fill-rule:evenodd;clip-rule:evenodd;fill:#e50038"/>
</svg>
